<?xml version="1.0" encoding="UTF-8"?>
<svg id="Layer_2" data-name="Layer 2" xmlns="http://www.w3.org/2000/svg" viewBox="0 0 51.7 57.11">
  <g id="Layer_1-2" data-name="Layer 1">
    <g>
      <path d="M44.56,20.68h7.14V7.54l-11.71-4.77C30.92-.92,20.77-.92,11.71,2.77L0,7.54v12.59c0,7.85,2.32,15.44,6.7,21.95,4.38,6.51,10.54,11.52,17.81,14.48l1.34.55,1.34-.55c7.27-2.96,13.43-7.97,17.81-14.48,1.39-2.06,2.57-4.24,3.53-6.49.55-1.27,1.02-2.57,1.43-3.89.71-2.32,1.21-4.7,1.48-7.12,0,0,0,0,0,0h-7.19s-32.88,0-32.88,0c.24,2.24.8,4.4,1.64,6.43h0c.17.42.59.7,1.04.7h28.38c-.51,1.34-1.11,2.64-1.8,3.89-3.25,5.96-8.36,10.83-14.78,13.78-7.77-3.58-13.63-9.96-16.58-17.67-.05-.14-.11-.29-.16-.43-1.28-3.5-1.97-7.26-1.97-11.14v-7.79l9.5-3.87c5.91-2.41,12.52-2.41,18.43,0l9.5,3.87v8.35Z"/>
      <path d="M15.54,35.59c2.53,3.58,6.07,6.47,10.31,8.19,4.25-1.73,7.78-4.61,10.31-8.19H15.54Z"/>
      <path d="M33.85,12.68c-5.13-2.09-10.87-2.09-15.99,0l-6.61,2.69v5.31h29.22v-5.31l-6.61-2.69Z"/>
    </g>
  </g>
</svg>